<?xml version="1.0" encoding="UTF-8"?><svg id="Livello_2" xmlns="http://www.w3.org/2000/svg" width="49.6" height="100.5" viewBox="0 0 49.6 100.5"><defs><style>.cls-1{stroke-width:0px;}</style></defs><g id="Livello_1-2"><path class="cls-1" d="m27.2,99.7c-.2-.6.2-1.3.8-1.5l.6-.2.6-.2.6-.2.6-.2.5-.3.5-.3.5-.3.5-.3.5-.3.5-.3.5-.4.5-.4.9-.8.9-.9.8-.9.8-1,.8-1,.7-1.1.7-1.1.7-1.1.6-1.2.6-1.2.6-1.2.5-1.2.5-1.2.5-1.2.4-1.2.4-1.2.4-1.2.3-1.2.3-.9.2-.9.2-.9.2-.9.2-.9v-.9c.1,0,.3-.9.3-.9v-.9c.1,0,.2-.9.2-.9v-.9c0,0,.1-.9.1-.9v-.9s0-.9,0-.9v-.9s0-1.8,0-1.8l-.2-1.8-.2-1.7-.3-1.7-.4-1.7-.4-1.7-.5-1.7-.6-1.7-.6-1.7-.7-1.6-.8-1.6-.8-1.6-.9-1.6-.9-1.6-.5-.8-.5-.8-.5-.7-.5-.7-.5-.7-.5-.7-.6-.7-.6-.7-.6-.7-.6-.7-.6-.7-.6-.7-.6-.7-.6-.7-.6-.7-.6-.7-.7-.7-.7-.7-.7-.6-.7-.6-.7-.6-.7-.6-.7-.6-.7-.6-.7-.6-.7-.6-.7-.6-.7-.6-.7-.6-.8-.6-.8-.5-.8-.5-.8-.5-.8-.5-.8-.5-.8-.5-.8-.5-.8-.5-.8-.5-.8-.5-.8-.4-.8-.4-.8-.4-.8-.4-.8-.4-.8-.4-1.7-.8-1.7-.7-1.7-.7h0s.3.3.3.3l.6.7.3.4.3.4.3.4.3.4.3.4.3.4.3.4.2.4.2.4.2.4v.4c.1,0,.2.4.2.4,0,.6-.4,1.2-1,1.3-.6,0-1.2-.4-1.3-1v-.2s0-.1,0-.1v-.2c0,0-.2-.2-.2-.2l-.2-.3-.2-.3-.2-.3-.3-.3-.3-.3-.3-.4-.3-.4-.3-.4-.6-.7-.6-.8-.8-1.4-.2-.5h0s0,0,0,0h0c0,0,0-.1,0-.1h0c0,0,0-.2,0-.2h0c0-.1,0-.3,0-.3h0c0-.1,0-.3,0-.3h0c0-.1,0-.2,0-.2H0c0,0,0-.2,0-.2v-.2s.2-.5.2-.5h0s0,0,0,0h0s0,0,0,0h0s0,0,0,0h0s.2-.2.2-.2h.1c0,0,.2-.2.2-.2h.2c0,0,.2-.2.2-.2h.2c0,0,.2-.2.2-.2h.2c0-.1.3-.2.3-.2h.3c0-.1.3-.2.3-.2h.3c0-.1.7-.4.7-.4l.7-.3.8-.3.8-.3.9-.3.9-.3.9-.3.9-.3,1.7-.6,1.5-.6.7-.3.6-.2.5-.2h.2c0,0,.2-.2.2-.2h.2c0,0,.2-.1.2-.1h.1s0,0,0,0c.6-.3,1.4,0,1.6.7.3.6,0,1.4-.7,1.6h-.1s-.1,0-.1,0h-.2c0,0-.2.1-.2.1h-.2c0,0-.2.2-.2.2l-.5.2-.6.2-.7.3-1.5.6-1.7.6-.9.3-.9.3-.9.3-.8.3-.8.3-.8.3-.7.3h-.2c0,0,1.7.7,1.7.7l1.7.7,1.7.8.8.4.8.4.8.4.8.4.8.5.8.5.8.5.8.5.8.5.8.5.8.5.8.5.8.5.8.5.8.6.8.6.8.6.8.6.8.6.8.6.7.6.7.6.7.6.7.6.7.6.7.6.7.7.7.7.7.7.7.7.7.7.7.7.6.7.6.7.6.7.6.7.6.7.6.7.6.8.6.8.6.8.6.8.5.8.5.8.5.8.5.8,1,1.6.9,1.6.8,1.7.8,1.7.7,1.7.7,1.7.6,1.8.5,1.8.5,1.8.4,1.8.3,1.8.2,1.8.2,1.9v1.9c0,0,0,1,0,1v.9s0,1,0,1v1c0,0-.1,1-.1,1v1c0,0-.2,1-.2,1v1c-.1,0-.3,1-.3,1l-.2,1-.2,1-.2,1-.2,1-.3,1-.4,1.2-.4,1.2-.4,1.2-.4,1.2-.5,1.3-.5,1.3-.6,1.3-.6,1.3-.6,1.2-.7,1.2-.7,1.2-.7,1.2-.8,1.1-.8,1.1-.9,1.1-.9,1-1,1-1,.9-.5.4-.5.4-.6.4-.6.4-.6.4-.6.3-.6.3-.6.3-.6.3-.7.2-.7.2-.7.2c-.6.2-1.3-.2-1.5-.8Z"/></g></svg>