<?xml version="1.0" encoding="UTF-8"?><svg id="Livello_2" xmlns="http://www.w3.org/2000/svg" width="428" height="428" xmlns:xlink="http://www.w3.org/1999/xlink" viewBox="0 0 428 428"><defs><style>.cls-1,.cls-2,.cls-3{stroke-width:0px;}.cls-2{fill:url(#Sfumatura_senza_nome_8);}.cls-3{fill:#fff;}</style><linearGradient id="Sfumatura_senza_nome_8" x1="400.6" y1="400.6" x2="30.5" y2="30.5" gradientUnits="userSpaceOnUse"><stop offset="0" stop-color="#fe8319"/><stop offset="1" stop-color="#ed1980"/></linearGradient></defs><g id="Livello_1-2"><rect class="cls-2" width="428" height="428" rx="93.5" ry="93.5"/><path class="cls-1" d="m113,298.1c-1.6,3-4.8,8-10.7,10.7-4.9,2.3-9.8,1.7-19.6.4-5.9-.7-14-1.8-23.6-6.2-.7-.3-1.4-.7-2.1-1-6.2-3.1-11.4-8.2-14.2-14.6s-.3-.8-.5-1.2c-1.5-3.8-1.9-7-1.9-18.4,0-13.5.4-23.5.5-25.2.4-7.7.6-12.7,1.3-19.3,1.6-15,3.6-26.1,5.7-37.7,2.1-11.6,4.1-21.4,5.8-28.9s1.4-5,2.7-7.2,3.2-4.9,5.8-7c6.9-5.4,15.1-5.1,27.6-4.4,6.6.4,15.9,1.4,26.7,4.4,1.6-2.1,4.5-5.2,8.9-7.6,10.1-5.4,21.1-2.9,34.7.4,5,1.2,12.4,3.3,20.9,7.1,6-5.1,14.7-11,26.2-14.7,35.4-11.3,67.2,8.3,72.9,12,.3-2.6,1.7-9.6,7.6-15.1,4.6-4.3,9.6-5.5,12.9-6.2,4.2-1,7.7-1,22.2,1.3,20.6,3.3,24.1,4.9,27.1,7.1.5.4,1,.7,1.4,1.1,5.3,4.3,8.3,10.7,8.4,17.5s0,2.9,0,4.5c-.3,10.3-2,16.7-4.4,28.9-1.1,5.4-2.5,13.3-4,23.1,9.3,1.3,15,5.1,18,7.4,5.8,4.6,9,14,15.4,32.6,3.7,10.9,4.8,16,2.7,21.3-.9,2.2-2.1,4-3.4,5.5s-3.8,3.5-6.2,4.7-5.6,2.7-9.1,4.1c-6.8,2.7-13,4.5-21,6.3-6.8,1.5-16.5,3.5-28.7,5.1s-12.1-.4-17.2-3.6-1.6-1-2.4-1.5c-7.3-4.9-12.9-10.2-16.9-14.7-3.4,4.3-18.7,22.9-45.8,27.1-32.7,5-55.9-14.9-59.1-17.8.2,10.2-3.6,15.3-5.5,17.4-7.3,8-19.8,7.1-34.9,6.2-10-.7-18.3-2.4-24-4Z"/><path class="cls-3" d="m66.4,282.8c-3-1.8-4.8-5.1-4.7-8.6.8-16.9,2.2-34.8,4.2-53.4,2.1-19.5,4.8-38,7.8-55.4s3.6-6.3,7.2-6.5,7.4-.2,11.6.1c6.6.5,12.3,1.7,17.2,3s6.3,3.9,7.1,7.5l7.9,35.9c.2.7,1.2.6,1.2-.1.2-9.4,1.1-19.9,3.1-31.2.9-5,1.9-9.7,3-14.1s3.8-5.5,7.1-5.4,6.1.4,9.4.9c5.1.7,9.7,1.9,13.7,3.1s5.8,4.8,5.2,8.5c-4,21.9-7.3,45.5-9.5,70.6-1.1,12.6-1.9,24.8-2.4,36.6s-3.7,8.3-8.2,8.9-12.1.7-19.5-1.1c-2.7-.7-5.1-1.5-7.4-2.3-3.4-1.3-5.9-4.2-7-7.7-4.7-15.8-9.5-31.5-14.2-47.3l-2.3,54.4c-.2,4.9-4.1,8.9-9,9s-8.2-.2-13-1.7c-3.4-1-6.2-2.4-8.6-3.7Z"/><path class="cls-3" d="m240.4,189c.6,3.6,3.7,6.2,7.3,6.3s8.4,0,13.4-1.1c2.4-.5,4.6-1.1,6.6-1.8,4.2-1.4,7.2-5.1,7.8-9.5s.3-2.7.3-4.2c0,0,0-.1,0-.2.1-7.5-3.4-14.6-9.5-19-18.6-13.5-40.1-17.7-57.2-10.2-2,.9-4.5,2.2-7.2,4-5.8,4-10.5,9.5-13.7,15.8-7.3,14-21.6,47.9-7.1,78.9,0,0,0,0,0,.1,6.6,13.9,19.3,24.2,34.3,27.3s10.9,1.5,17.2.5c17.2-2.6,31.9-14.2,39.3-30.5,1.4-3.2,2-6.7,1.7-10.2-.5-5-1.4-10.8-3.2-17.1-1.1-3.9-2.4-7.5-3.8-10.6s-4.7-5.5-8.4-5.4c-5.2,0-11.1.4-17.4,1.4-3,.5-5.9,1-8.6,1.6-5.3,1.2-9.2,6-9.1,11.4s.2,3.1.5,4.8c.2,1.2.5,2.4.9,3.5,1.6,4.9,6,8.2,11.1,8.4h0c1.3,0,2,1.5,1.3,2.5-3.1,4.4-7.9,6.3-11.6,5-3.2-1.1-4.7-4.2-5.2-5.2-2.2-9.6-5.7-32,6.7-51.6.7-1.1,1.4-2.1,2.2-3.1,2-2.7,6.1-2.7,8.1,0s0,0,0,0c2,2.8,2.9,5.7,3.3,8.2Z"/><path class="cls-3" d="m308.7,140.6c-4.1-.7-8.1,2-9,6.1-3.1,13.7-6,28.8-8,45.2-1.6,12.7-2.6,24.8-3.2,36.1s1.3,13.1,4.7,18.8,3.5,5.4,5.6,8.2c0,0,0,.1.1.2,7,9.2,18.7,13.5,30,11.3,9-1.8,17.9-3.5,26.9-5.3s8.5-5.9,7.6-11-1.1-5.5-2-8.5c-1.1-3.9-2.4-7.4-3.8-10.5s-5.9-6.6-10.4-6.3l-14.9,1c-1.9.1-3.5-1.3-3.6-3.2-.2-4.8-.2-11.5.6-19.2,1.3-12.2,3.7-18.1,6.2-32.4.8-4.5,1.8-10.9,2.5-18.7s-2.3-7.2-6-7.9c-7.8-1.3-15.6-2.5-23.4-3.8Z"/></g></svg>