<?xml version="1.0" encoding="UTF-8"?><svg id="Livello_2" xmlns="http://www.w3.org/2000/svg" width="957.9" height="957.9" viewBox="0 0 957.9 957.9"><defs><style>.cls-1{fill-rule:evenodd;stroke-width:0px;}</style></defs><g id="Livello_1-2"><path class="cls-1" d="m0,0h231.2v231.2H0V0Zm33,33v165.2h165.2V33H33Z"/><path class="cls-1" d="m66.1,66.1h99.1v99.1h-99.1v-99.1Z"/><path class="cls-1" d="m957.9,0v231.2h-231.2V0h231.2Zm-33,33h-165.2v165.2h165.2V33Z"/><path class="cls-1" d="m891.9,66.1v99.1h-99.1v-99.1h99.1Z"/><path class="cls-1" d="m0,957.9v-231.2h231.2v231.2H0Zm33-33h165.2v-165.2H33v165.2Z"/><path class="cls-1" d="m66.1,891.9v-99.1h99.1v99.1h-99.1Z"/><path class="cls-1" d="m297.3,0v33h33v33h-66.1v198.2h33v-66.1h33v33h33v33h-33v33h-33v33h-33v33h-33v-33h-33v-33h33v-33H66.1v33h-33v-33H0v66.1h33v99.1H0v66.1h99.1v-33h33v33h99.1v-33h33v66.1h-66.1v33h-33v33h-33v-66.1h-66.1v132.1h99.1v33h99.1v33h66.1v33h-66.1v132.1h33v33h-33v33h33v-33h33v33h66.1v-33h33v-99.1h-66.1v-33h33v-66.1h33v66.1h33v33h33v33h-33v33h33v-33h66.1v-33h-33v-66.1h33v-33h-33v-33h33v-66.1h33v33h66.1v66.1h-33v-33h-33v33h33v99.1h33v33h33v-33h66.1v66.1h33v-66.1h33v-66.1h33v66.1h99.1v-66.1h-66.1v-33h33v-66.1h-99.1v-33h132.1v-66.1h-33v33h-66.1v-33h-66.1v-33h33v-33h66.1v33h66.1v-66.1h-33v-33h-33v33h-33v-33h-66.1v-33h66.1v-33h33v-33h33v-33h-33v-33h-165.2v33h66.1v33h33v33h-231.2v-33h99.1v-132.1h-33v33h-33v-33h-33v-33h33v-33h-33v-33h66.1v66.1h33v-66.1h-33V33h33V0h-66.1v66.1h-99.1v66.1h-99.1v66.1h-33v33h-33v-33h-33v-33h33V33h66.1V0h-132.1Zm198.2,0v33h66.1V0h-66.1Zm-33,66.1v33h33v-33h-33Zm-165.2,33v33h33v-33h-33Zm231.2,33v33h66.1v-33h-66.1Zm-99.1,66.1v33h-33v33h-33v33h-33v66.1h-66.1v66.1h33v-33h33v66.1h-33v99.1h-33v66.1h-66.1v-33h33v-33h-33v33h-33v33h33v33h99.1v-99.1h33v33h33v33h-33v33h33v-33h33v-66.1h33v99.1h-33v33h132.1v-66.1h33v-33h33v33h66.1v-33h33v33h66.1v-33h33v33h33v-33h-33v-33h-33v33h-66.1v-33h33v-33h-99.1v-33h198.2v-33h-33v-33h-33v33h-66.1v-33h33v-33h-33v33h-33v-33h-66.1v33h-66.1v-66.1h33v-33h33v-33h-33v-33h33v-66.1h-33v33h-33v-33h-33v33h-33v-33h-33Zm0,33v33h33v33h33v33h66.1v-33h-33v-66.1h-33v33h-33v-33h-33Zm198.2,33v33h33v-33h-33Zm-561.5,33v99.1h66.1v66.1h33v-66.1h66.1v-33h-66.1v33h-33v-33h-33v-66.1h-33Zm792.8,0v33h33v-33h-33Zm-462.5,33v99.1h-33v66.1h-33v66.1h66.1v-33h66.1v33h33v33h66.1v-33h33v33h33v-33h-33v-33h-33v33h-33v-66.1h99.1v-33h-99.1v-33h-99.1v-99.1h-33Zm-66.1,33v33h33v-33h-33Zm132.1,0v33h33v-33h-33Zm462.5,0v33h33v-33h-33Zm-726.7,66.1v33h33v-33h-33Zm198.2,0v66.1h-33v33h33v-33h33v-66.1h-33Zm66.1,66.1v33h33v-33h-33ZM0,528.5v165.2h33v-165.2H0Zm99.1,66.1v33h33v-33h-33Zm363.4,33v33h33v-33h-33Zm-132.1,66.1v33h33v-33h-33Zm363.4,0v99.1h99.1v-99.1h-99.1Zm132.1,0v33h66.1v-33h-66.1Zm-99.1,33v33h33v-33h-33Zm-396.4,33v33h-33v66.1h33v-66.1h33v-33h-33Zm132.1,0v33h33v-33h-33Zm-99.1,99.1v33h-33v33h66.1v-66.1h-33Zm231.2,0v99.1h66.1v-33h-33v-66.1h-33Zm264.3,0v33h-33v33h-33v33h99.1v-66.1h33v33h33v-33h-33v-33h-66.1Zm-330.3,33v33h33v-33h-33Zm165.2,33v33h66.1v-33h-66.1Z"/></g></svg>